PathFileType	4	(X/Y/Z)	C:/Users/beibeiliu/ov580/test_trc/capture2\sequence.15_training_dense_right.trc
DataRate	CameraRate	NumFrames	NumMarkers	Units	OrigDataRate	OrigDataStartFrame	OrigNumFrames
120	120	8	19	mm	120	184	367
Frame#	Time	ThumbCMC			ThumbMCP			ThumbIP			ThumbTip			IndexMCP			IndexPIP			IndexTip			MiddleMCP			MiddlePIP			MiddleTip			RingMCP			RingPIP			RingTip			PinkyMCP			PinkyPIP			PinkyTip			BackHand1			BackHand2			BackHand3	
		X0	Y0	Z0	X1	Y1	Z1	X2	Y2	Z2	X3	Y3	Z3	X4	Y4	Z4	X5	Y5	Z5	X6	Y6	Z6	X7	Y7	Z7	X8	Y8	Z8	X9	Y9	Z9	X10	Y10	Z10	X11	Y11	Z11	X12	Y12	Z12	X13	Y13	Z13	X14	Y14	Z14	X15	Y15	Z15	X16	Y16	Z16	X17	Y17	Z17	X18	Y18	Z18	
183	1.525	118.816	46.8697	-20.7381	111.015	27.0788	-40.7282	97.0842	17.8349	-61.3349	90.2617	9.28888	-82.3647	135.438	37.0369	-87.9754	139.294	6.6983	-79.3156	137.405	19.1517	-48.8522	158.956	36.7088	-85.8382	159.697	7.96275	-69.7581	148.805	30.0246	-41.3278	175.107	33.9774	-82.7715	170.177	11.2754	-61.1973	158.261	30.2634	-38.6907	199.916	55.4971	-74.2042	209.299	41.8981	-91.7994	219.559	30.068	-113.046	167.043	81.2947	-45.985	165.768	84.9633	-12.0133	133.368	76.6726	-32.2772	
184	1.53333	118.287	48.0883	-27.14	115.731	31.8101	-48.2886	103.778	22.4085	-70.4907	100.344	16.5733	-90.5694	139.72	40.4993	-92.3026	147.652	12.6825	-81.9789	144.287	25.3897	-52.4941	164.981	42.5825	-88.8896	167.729	16.3655	-75.7848	150.858	33.5678	-43.1516	179.635	45.277	-81.9028	174.644	18.3004	-67.2589	162.903	35.6838	-40.4255	201.252	64.6411	-73.6105	218.647	54.3268	-88.717	232.258	45.8673	-106.322	167.679	84.2231	-43.1533	162.398	86.889	-13.7779	136.242	78.2623	-31.7265	
185	1.54167	122.002	49.7893	-27.0149	116.134	32.6613	-48.5888	111.672	27.37	-73.7624	105.546	21.0086	-96.168	145.834	47.095	-95.3743	153.277	20.3897	-89.2088	147.235	33.5332	-54.4579	166.059	48.9013	-92.4056	170.619	22.6308	-75.9643	155.696	35.2695	-47.9509	185.254	50.2906	-84.1948	184.83	26.4592	-70.9671	164.184	38.0011	-44.2337	203.401	74.3313	-71.9498	220.847	66.1998	-89.8778	237.085	61.2607	-103.703	169.054	89.6892	-44.1132	164.32	88.4703	-7.98645	135.623	81.5528	-30.2064	
186	1.55	123.306	50.5963	-27.9031	119.139	35.3715	-53.2515	114.93	31.6333	-79.9958	108.764	25.721	-100.151	146.43	56.6601	-95.301	156.398	27.3187	-91.2502	150.648	35.753	-59.2054	168.149	60.0335	-91.7205	173.436	29.4137	-83.9575	156.319	40.5682	-48.5612	189.287	60.8479	-85.1478	188.118	34.6408	-73.1701	168.159	41.993	-46.7659	209.706	84.9286	-71.3022	219.301	78.4111	-89.5935	235.611	79.1037	-105.36	168.114	94.1795	-39.8583	164.241	93.1404	-8.40008	136.347	85.2196	-34.99	
187	1.55833	125.013	51.9044	-28.6737	124.323	39.7229	-56.4559	115.883	32.6829	-79.7389	110.553	28.7315	-101.758	150.711	65.6624	-95.8867	159.608	32.8991	-94.0717	156.008	39.3121	-61.6697	170.636	67.8663	-91.5569	174.237	35.8559	-82.862	159.989	45.7347	-50.9944	188.318	69.5348	-86.7393	188.731	42.6963	-78.3557	169.834	48.1969	-47.4789	209.264	94.7571	-71.6078	223.544	91.9773	-88.2765	238.427	95.5341	-106.705	169.788	101.338	-36.9348	162.569	95.9555	-10.0664	136.57	86.8275	-33.9758	
188	1.56667	127.365	53.3944	-29.9513	122.574	38.8659	-56.2106	118.107	37.6115	-84.4709	112.436	32.5431	-104.122	149.235	68.8849	-99.0673	163.455	41.2791	-96.1761	158.795	42.9811	-64.5303	170.844	72.7039	-95.2401	182.077	45.4588	-87.08	161.874	50.0129	-52.46	186.336	77.9372	-86.8399	192.882	49.0626	-79.9803	174.336	51.5848	-49.0015	202.009	101.253	-70.7476	217.556	102.648	-90.0159	233.23	108.57	-108.86	168.322	102.537	-34.9887	160.541	98.0399	-10.5649	138.31	90.0943	-28.3723	
189	1.575	124.957	53.2426	-35.4218	123.807	42.5085	-61.5036	117.202	38.8874	-88.7782	114.686	37.0286	-108.184	147.636	74.0898	-97.0424	161.957	44.5445	-99.3564	156.83	43.2433	-68.3323	169.837	78.0772	-95.9908	177.306	46.1586	-87.7353	162.486	49.7184	-55.9232	186.684	82.0428	-90.0926	190.277	54.1221	-83.4965	177.516	54.8381	-52.3565	202.225	106.748	-67.4926	213.737	109.36	-91.6788	228.043	115.747	-106.816	167.168	107.036	-35.7842	159.206	98.3005	-8.44436	134.651	88.8011	-31.3942	
190	1.58333	126.002	53.5169	-32.8065	124.949	44.4432	-62.8294	118.609	40.2999	-87.1438	113.931	39.4748	-111.369	145.165	76.2645	-100.362	161.203	49.9967	-102.53	156.857	47.8479	-68.1824	166.677	84.4611	-94.4377	179.261	52.6449	-88.7023	163.107	56.2248	-55.3969	184.247	87.1063	-91.5794	190.347	60.3356	-86.8301	173.976	58.4262	-54.0561	194.738	110.835	-70.2326	209.426	116.094	-90.4261	224.254	123.788	-107.202	165.878	109.304	-38.9133	158.162	98.6982	-7.03764	131.723	89.8251	-32.3366	
